<svg width="100%" viewBox="0 0 1273 330" fill="none" xmlns="http://www.w3.org/2000/svg">
        <path d="M583.72 276.498C541.38 276.498 512.989 248.002 512.989 205.364C512.989 162.726 541.38 134.424 583.72 134.424C626.059 134.424 654.214 162.899 654.214 205.364C654.214 247.829 625.822 276.498 583.72 276.498ZM583.828 80.9003C504.991 80.9003 452.109 130.802 452.109 205.192C452.109 280.034 504.991 329.936 583.828 329.936C662.212 329.936 715.071 280.034 715.071 205.192C715.071 130.802 662.212 80.9003 583.828 80.9003Z" fill="#67645E"></path>
        <path d="M149.568 81.4906C151.177 81.4734 152.727 82.0944 153.878 83.2175C155.03 84.3407 155.689 85.8746 155.712 87.483L155.712 134.581C155.689 135.744 155.236 136.857 154.439 137.706C153.643 138.554 152.56 139.076 151.4 139.172C141.311 139.754 115.593 134.322 94.6387 142.836C87.586 146.16 81.382 151.045 76.4967 157.121C71.6114 163.197 68.1727 170.305 66.4411 177.907C63.574 190.258 63.8542 293.226 63.9836 319.308C63.9751 320.104 63.81 320.89 63.4978 321.621C63.1855 322.353 62.7322 323.016 62.1636 323.572C61.5951 324.129 60.9225 324.568 60.1843 324.864C59.4461 325.161 58.6567 325.309 57.8611 325.3L6.12241 325.3C5.32688 325.309 4.53747 325.161 3.79924 324.864C3.06101 324.568 2.38844 324.129 1.81991 323.572C1.25138 323.016 0.798032 322.353 0.485771 321.621C0.17351 320.89 0.00844783 320.104 0 319.308L0 92.764C0.00843826 91.8733 0.192625 90.993 0.541988 90.1737C0.89135 89.3543 1.39902 88.612 2.0359 87.9892C2.67277 87.3664 3.42632 86.8755 4.25335 86.5444C5.08038 86.2135 5.96463 86.049 6.85538 86.0603L54.994 86.0603C56.7515 86.0416 58.4478 86.7049 59.7262 87.9109C61.0047 89.1168 61.7657 90.7715 61.8493 92.5269L62.1511 106.128C62.183 106.923 62.4804 107.684 62.996 108.29C63.5115 108.896 64.2153 109.312 64.9949 109.471C65.7745 109.63 66.5849 109.523 67.2965 109.167C68.0081 108.811 68.5798 108.227 68.9203 107.508C74.051 96.7301 81.855 87.0734 90.9523 83.797C95.6153 82.1658 100.521 81.335 105.461 81.3398L149.568 81.4906Z" fill="#67645E"></path>
        <path d="M427.727 177.39L427.727 319.329C427.719 320.127 427.553 320.914 427.239 321.647C426.926 322.38 426.47 323.044 425.9 323.601C425.329 324.158 424.654 324.596 423.913 324.892C423.172 325.187 422.38 325.333 421.583 325.322L369.844 325.322C368.236 325.339 366.686 324.718 365.534 323.595C364.382 322.472 363.723 320.938 363.7 319.329L363.7 187.521C363.7 155.317 340.181 134.15 304.395 134.15L267.315 134.15C264.429 134.116 261.564 134.651 258.884 135.725C256.204 136.799 253.762 138.39 251.698 140.408C249.634 142.426 247.988 144.831 246.854 147.485C245.72 150.14 245.12 152.992 245.089 155.878L245.089 319.329C245.081 320.127 244.915 320.914 244.601 321.647C244.288 322.38 243.833 323.044 243.262 323.601C242.691 324.158 242.016 324.596 241.275 324.892C240.534 325.187 239.743 325.333 238.945 325.322L187.206 325.322C185.598 325.339 184.048 324.718 182.896 323.595C181.745 322.472 181.085 320.938 181.063 319.329L181.063 6.99756C181.085 5.38919 181.745 3.85538 182.896 2.73218C184.048 1.60901 185.598 0.988007 187.206 1.00528L238.945 1.00528C240.554 0.988007 242.104 1.60901 243.255 2.73218C244.407 3.85538 245.066 5.38919 245.089 6.99756L245.089 74.7664C245.106 76.3748 245.76 77.9109 246.908 79.0381C248.055 80.1653 249.603 80.7918 251.212 80.7803L327.031 80.7803C387.392 80.9958 427.727 119.579 427.727 177.368" fill="#67645E"></path>
        <path d="M936.165 211.463C936.165 247.158 906.566 276.127 870.047 276.127C833.528 276.127 803.951 247.201 803.951 211.463V199.414C803.951 163.719 833.55 134.749 870.047 134.749L915.685 134.749C918.343 134.718 920.982 135.21 923.45 136.199C925.918 137.187 928.167 138.652 930.068 140.509C931.97 142.367 933.487 144.58 934.533 147.024C935.579 149.468 936.134 152.094 936.165 154.752L936.165 211.463ZM989.175 1.00098L947.073 1.00098C945.639 0.97229 944.215 1.22989 942.882 1.75867C941.549 2.28741 940.335 3.07672 939.311 4.08035C938.288 5.08401 937.474 6.28183 936.919 7.60367C936.364 8.92548 936.078 10.3448 936.079 11.7784L936.079 72.6062C936.028 74.9256 935.064 77.1314 933.398 78.7454C931.731 80.3594 929.495 81.2514 927.175 81.2282L859.419 81.2282C859.29 81.2282 859.16 81.2282 859.009 81.2282C790.283 81.2282 737.574 133.219 737.574 210.989C737.574 287.357 790.283 329.756 859.009 329.756C887.185 329.756 910.101 321.608 927.197 307.253C934.268 301.303 935.82 305.657 936.165 314.754C936.423 320.53 937.113 325.143 948.819 325.143L989.175 325.143C990.609 325.172 992.034 324.914 993.367 324.385C994.699 323.857 995.913 323.067 996.937 322.064C997.961 321.06 998.774 319.862 999.329 318.54C999.884 317.219 1000.17 315.799 1000.17 314.366L1000.17 11.7784C1000.17 10.3448 999.884 8.92548 999.329 7.60367C998.774 6.28183 997.961 5.08401 996.937 4.08035C995.913 3.07672 994.699 2.28741 993.367 1.75867C992.034 1.22989 990.609 0.97229 989.175 1.00098Z" fill="#67645E"></path>
        <path d="M1148.79 134.338C1175.31 134.338 1201.65 150.44 1202.9 175.574C1202.9 175.818 1202.86 176.06 1202.77 176.286C1202.67 176.513 1202.54 176.718 1202.36 176.891C1202.19 177.063 1201.99 177.2 1201.76 177.292C1201.53 177.384 1201.29 177.43 1201.05 177.427L1094.81 177.427C1094.57 177.433 1094.32 177.389 1094.1 177.298C1093.87 177.207 1093.66 177.07 1093.49 176.896C1093.32 176.723 1093.19 176.516 1093.1 176.288C1093.01 176.061 1092.97 175.818 1092.98 175.574C1094.31 150.957 1122.14 134.338 1148.79 134.338ZM1261.52 227.026C1264.11 227.076 1266.62 226.162 1268.57 224.461C1270.53 222.76 1271.77 220.393 1272.08 217.822C1272.47 213.726 1272.66 209.538 1272.66 205.255C1272.66 130.781 1224.54 80.8593 1148.68 80.9671C1075.84 81.0749 1023.22 135.2 1023.65 206.419C1024.16 280.613 1073.08 329.996 1148.85 329.996C1203.31 329.996 1241.88 304.13 1260.96 261.816C1261.32 260.909 1261.46 259.925 1261.35 258.952C1261.25 257.979 1260.9 257.048 1260.35 256.242C1259.79 255.436 1259.04 254.781 1258.17 254.335C1257.3 253.89 1256.33 253.668 1255.35 253.69L1200.53 253.69C1198.41 253.738 1196.31 254.216 1194.38 255.094C1192.45 255.972 1190.71 257.232 1189.28 258.799C1178.39 270.029 1166.58 276.56 1148.81 276.56C1117.88 276.56 1092.91 257.549 1092.91 226.983L1261.52 227.026Z" fill="#67645E"></path>
      </svg>