<svg width="16" height="18" viewBox="0 0 16 18" fill="none" xmlns="http://www.w3.org/2000/svg">
    <path d="M8.58371 0.600098H11.386C11.4161 0.722499 11.4395 0.846454 11.4561 0.971407C11.5415 1.94597 11.9873 2.85364 12.7064 3.51699C13.4255 4.18034 14.3661 4.55167 15.3443 4.5584V7.1996C15.2133 7.24221 15.0757 7.26118 14.938 7.25564C14.2862 7.18365 13.6401 7.0666 13.0044 6.90535C12.4558 6.69422 11.9221 6.44611 11.4071 6.16273V6.51303C11.4071 7.91419 11.4071 9.3574 11.4071 10.7796C11.4141 11.3584 11.3766 11.9369 11.295 12.51C11.1721 13.4666 10.8062 14.3758 10.2323 15.1509C9.6583 15.926 8.89538 16.5411 8.01624 16.9377C7.49961 17.1277 6.9706 17.2822 6.43292 17.4001H5.45911C5.41831 17.3807 5.37616 17.3643 5.333 17.3511C4.346 17.2255 3.41886 16.8085 2.67008 16.1534C1.92131 15.4982 1.38492 14.6346 1.1295 13.673C1.01191 13.2545 0.922961 12.8285 0.863281 12.3979V11.5782C0.940345 11.1929 0.996392 10.8076 1.10849 10.4293C1.42423 9.41909 2.03426 8.52609 2.86048 7.86461C3.68671 7.20313 4.69154 6.80326 5.74635 6.71619C6.06161 6.66715 6.37687 6.65314 6.71315 6.62512C6.71315 7.53588 6.71315 8.37658 6.71315 9.22428C6.71315 9.42745 6.60807 9.45548 6.43993 9.50452C5.90278 9.62765 5.37581 9.79159 4.86361 9.99493C4.46913 10.1436 4.1302 10.4105 3.89318 10.7591C3.65617 11.1077 3.53265 11.521 3.53951 11.9425C3.5098 12.4205 3.62152 12.8967 3.86074 13.3116C4.09996 13.7265 4.45607 14.0617 4.88463 14.2755C5.27652 14.5178 5.73172 14.6379 6.19216 14.6204C6.65259 14.603 7.09738 14.4487 7.46978 14.1774C7.74862 13.9778 7.98248 13.7219 8.15625 13.4262C8.33002 13.1305 8.43985 12.8017 8.47863 12.461C8.56238 11.7637 8.5975 11.0614 8.58371 10.3592C8.58371 7.24864 8.58371 4.13571 8.58371 1.02045C8.60473 0.873326 8.59072 0.740214 8.58371 0.600098Z" fill="#67645e"></path>
    </svg>