<?xml version="1.0" standalone="no"?>
<!DOCTYPE svg PUBLIC "-//W3C//DTD SVG 20010904//EN"
 "http://www.w3.org/TR/2001/REC-SVG-20010904/DTD/svg10.dtd">
<svg version="1.0" xmlns="http://www.w3.org/2000/svg"
 width="300.000000pt" height="300.000000pt" viewBox="0 0 300.000000 300.000000"
 preserveAspectRatio="xMidYMid meet">
<metadata>
Created by potrace 1.10, written by Peter Selinger 2001-2011
</metadata>
<g transform="translate(0.000000,300.000000) scale(0.100000,-0.100000)"
fill="#000000" stroke="none">
<path d="M1400 1690 l0 -170 35 0 35 0 0 170 0 170 -35 0 -35 0 0 -170z"/>
<path d="M1586 1735 c-33 -18 -39 -19 -31 -5 3 6 -2 10 -12 10 -16 0 -18 -10
-16 -102 1 -85 4 -104 17 -106 14 -3 16 9 16 77 0 71 2 82 22 95 28 20 33 20
52 0 12 -11 16 -36 16 -95 0 -64 3 -79 15 -79 12 0 15 15 15 75 0 62 4 79 20
95 24 24 34 25 54 4 12 -11 16 -36 16 -95 0 -64 3 -79 15 -79 12 0 15 16 15
88 0 55 -5 94 -12 105 -21 27 -61 31 -88 9 -20 -16 -27 -17 -35 -7 -17 22 -48
26 -79 10z"/>
<path d="M1905 1743 c-46 -11 -75 -63 -35 -63 11 0 20 6 20 14 0 35 84 31 93
-4 6 -24 4 -26 -56 -34 -82 -12 -112 -65 -61 -105 32 -25 62 -27 93 -5 22 16
24 16 33 0 5 -9 14 -16 21 -16 9 0 12 21 9 78 -4 109 -7 118 -43 131 -33 11
-41 12 -74 4z m79 -125 c-11 -40 -36 -59 -68 -56 -26 2 -31 7 -31 28 0 21 7
27 45 37 62 16 62 16 54 -9z"/>
<path d="M2116 1728 c-13 -18 -16 -19 -16 -5 0 9 -7 17 -15 17 -12 0 -15 -18
-15 -106 0 -93 2 -105 17 -102 14 2 16 14 14 63 -1 33 3 73 9 89 8 23 15 27
36 23 29 -5 46 19 23 34 -22 14 -37 11 -53 -13z"/>
<path d="M1184 1721 c-36 -15 -64 -60 -64 -102 0 -75 81 -130 137 -93 19 12
28 13 31 6 2 -7 17 -12 33 -12 l29 0 0 100 0 101 -47 -2 c-27 0 -59 1 -73 5
-14 3 -35 1 -46 -3z m88 -68 c22 -20 23 -41 1 -65 -20 -22 -46 -23 -67 -2 -30
29 -9 84 31 84 9 0 25 -7 35 -17z"/>
<path d="M910 1695 c0 -22 4 -25 40 -25 22 0 40 -2 40 -4 0 -8 -62 -100 -83
-123 l-20 -23 106 0 107 0 0 25 c0 23 -4 25 -45 25 -25 0 -45 2 -45 5 0 3 22
36 50 75 l50 70 -100 0 c-100 0 -100 0 -100 -25z"/>
</g>
</svg>
